<svg width="156" height="156" viewBox="0 0 156 156" fill="none" xmlns="http://www.w3.org/2000/svg">
<path d="M19.5 52L70.785 79.69C72.9213 81.1153 75.4319 81.8759 78 81.8759C80.5681 81.8759 83.0787 81.1153 85.215 79.69L136.5 52M32.5 123.5H123.5C126.948 123.5 130.254 122.13 132.692 119.692C135.13 117.254 136.5 113.948 136.5 110.5V45.5C136.5 42.0522 135.13 38.7456 132.692 36.3076C130.254 33.8696 126.948 32.5 123.5 32.5H32.5C29.0522 32.5 25.7456 33.8696 23.3076 36.3076C20.8696 38.7456 19.5 42.0522 19.5 45.5V110.5C19.5 113.948 20.8696 117.254 23.3076 119.692C25.7456 122.13 29.0522 123.5 32.5 123.5Z" stroke="black" stroke-width="5" stroke-linecap="round"/>
</svg>
