<svg width="123" height="123" viewBox="0 0 123 123" fill="none" xmlns="http://www.w3.org/2000/svg">
<path d="M105.995 103H88.8191V76.0433C88.8191 69.6151 88.6886 61.3427 79.8686 61.3427C70.9132 61.3427 69.5455 68.3372 69.5455 75.5689V103H52.3695V47.5666H68.8689V55.1226H69.0912C71.3965 50.7662 77.0027 46.1677 85.3781 46.1677C102.781 46.1677 106 57.6397 106 72.5726L105.995 103ZM32.9702 39.9816C27.4414 39.9816 23 35.4993 23 29.9859C23 24.4775 27.4463 20 32.9702 20C38.4797 20 42.9453 24.4775 42.9453 29.9859C42.9453 35.4993 38.4749 39.9816 32.9702 39.9816ZM41.5825 103H24.358V47.5666H41.5825V103Z" fill="black"/>
<path d="M108.75 3H14.75C8.26065 3 3 8.26065 3 14.75V108.75C3 115.239 8.26065 120.5 14.75 120.5H108.75C115.239 120.5 120.5 115.239 120.5 108.75V14.75C120.5 8.26065 115.239 3 108.75 3Z" stroke="black" stroke-width="5"/>
</svg>
